<?xml version="1.0" encoding="utf-8"?>
<svg viewBox="-131.154 37.587 504.8 301.912" xmlns="http://www.w3.org/2000/svg">
  <g transform="matrix(1, 0, 0, 1, -155.454147, -139.8134)">
    <path d="M143.7,204.4h19l-24.8,67.5h-20.1L93,204.4h19l15.9,49.4L143.7,204.4z"/>
    <path d="M224.6,263.6c-6.2,6.5-14.9,9.7-26,9.7c-11.2,0-19.8-3.2-26-9.7c-6.2-6.5-9.3-15.2-9.3-26.2c0-11,3.1-19.7,9.3-26.2 c6.2-6.5,14.9-9.7,26-9.7c11.2,0,19.8,3.2,26,9.7c6.2,6.5,9.3,15.2,9.3,26.2C233.9,248.4,230.8,257.1,224.6,263.6z M185.9,252.7 c3.1,3.8,7.3,5.7,12.6,5.7c5.3,0,9.5-1.9,12.6-5.7c3.1-3.8,4.7-8.9,4.7-15.3c0-6.4-1.6-11.5-4.7-15.3c-3.1-3.8-7.3-5.7-12.6-5.7 c-5.3,0-9.5,1.9-12.6,5.7c-3.1,3.8-4.7,8.9-4.7,15.3C181.2,243.8,182.8,248.9,185.9,252.7z"/>
    <path d="M244,271.8v-94.4h17.8v94.4H244z"/>
    <path d="M335.9,204.5v67.3h-27.9c-3.3,1.9-7.2,2.8-11.7,2.8c-7.8,0-13.6-2-17.3-6.1c-3.7-4.1-5.6-10.4-5.6-18.8v-45.2h17.8v42.8 c0,8.4,4.4,12.5,13.2,12.5c9.2-0.1,13.8-4.3,13.8-12.5v-42.8H335.9z M309.4,270.9c9.3-0.4,15.8-2.3,19.7-5.7 c3.9-3.3,5.7-7.8,5.5-13.5h-16.6C318.1,260.4,315.2,266.8,309.4,270.9z"/>
    <path d="M429.5,201.7c14.4,0,21.6,9,21.6,27.1v43h-17.8v-40.6c0-1.9-0.1-3.6-0.3-5c-0.2-1.4-0.7-3-1.4-4.6 c-0.7-1.6-1.9-2.9-3.6-3.8c-1.7-0.9-3.9-1.3-6.5-1.3c-4.9,0.1-8.3,1.3-10.2,3.6c-1.8,2.3-2.8,5.3-2.8,9v42.8h-17.8v-40.6 c0-1.9-0.1-3.6-0.3-5c-0.2-1.4-0.7-3-1.4-4.6c-0.7-1.6-1.9-2.9-3.6-3.8c-1.7-0.9-3.9-1.3-6.5-1.3c-4.9,0.1-8.3,1.3-10.2,3.6 c-1.8,2.3-2.8,5.3-2.8,9v42.8H348v-67.5h27.5c3.1-1.8,6.8-2.7,11.3-2.7c14.4,0,21.6,9,21.6,27.1v-4.2c0-4,0.6-7.7,1.8-10.9 c1.2-3.2,3.4-6,6.7-8.4C420.2,202.8,424.4,201.7,429.5,201.7z M365.8,224.6c0-8.8,2.7-15.2,8.2-19.3c-9.1,0.5-15.5,2.5-19.4,5.8 c-3.8,3.3-5.6,7.8-5.5,13.5H365.8z"/>
    <path d="M529,238.5h-51.5c0.3,5.7,2.2,10.4,5.9,14.2c3.6,3.8,7.7,5.7,12.1,5.7c4.8,0,8.2-0.8,10.3-2.4c2.1-1.6,3.6-3.7,4.4-6.4 h17.8c-3.2,15.7-14.3,23.6-33.2,23.6c-2.3-6.9-6.5-13.8-12.5-20.5c-6-6.7-13.4-11.9-22.3-15.4c0-10.7,3.3-19.4,9.9-26 c6.6-6.6,15-9.9,25.3-9.9c10.2,0,18.4,3.2,24.6,9.6c6.2,6.4,9.3,15,9.3,25.7V238.5z M494.4,216.4c-5.2,0-9.3,1.7-12.3,5.1 c-3,3.4-4.6,8.4-4.7,15h33.5C510.7,223.1,505.2,216.4,494.4,216.4z"/>
    <path d="M286.5,296.7c8.4,0,15.5,3.4,21.5,10.1c6,6.7,9,15.3,9,25.8s-3,19.1-9,25.8c-6,6.7-13.2,10.1-21.5,10.1 c-11.5,0-19.4-6.1-23.6-18.2v42.4h-17.8v-93.1h29.7C278.3,297.7,282.2,296.7,286.5,296.7z M273.3,300.4c-10,0.4-17,2.2-21.1,5.5 c-4.1,3.3-6.1,8-5.9,13.9h15.2C263.6,310.6,267.5,304.1,273.3,300.4z M266.1,347.8c3.7,3.9,8.2,5.9,13.6,5.9s9.9-2,13.6-5.9 c3.7-3.9,5.5-9,5.5-15.2c0-6.2-1.8-11.3-5.5-15.2c-3.7-3.9-8.2-5.9-13.6-5.9s-9.9,2-13.6,5.9c-3.7,3.9-5.5,9-5.5,15.2 C260.6,338.8,262.4,343.9,266.1,347.8z"/>
    <path d="M389,345.4c0,9.2,0.6,16.4,1.9,21.6H373c-1.2-4-1.8-9.8-1.8-17.4c-2.5,12.1-9.7,18.1-21.5,18.1c-6.9,0-12.6-2-16.9-5.9 c-4.4-4-6.5-9.8-6.5-17.5v-0.7c6.7-0.4,12.4-1.1,17.3-1.8c4.9-0.8,9.5-1.9,13.9-3.3c4.4-1.4,7.8-3.4,10.1-5.9 c2.3-2.5,3.6-5.4,3.6-8.8c-0.2-8-4.5-12-13.1-12c-4.4,0.1-7.8,1.1-10.1,2.9c-2.3,1.8-3.4,4.2-3.4,6.9h-17.8c0-7.3,3-13.2,9-17.8 c6-4.6,13.4-6.9,22.3-6.9c9.5,0,17.1,2.1,22.6,6.3c5.5,4.2,8.3,10.4,8.3,18.6V345.4z M356.8,354.2c4.4,0,7.9-1.5,10.5-4.6 c2.6-3.1,3.9-7,3.9-11.7v-3.4h-4.5c-2.2,1.8-4.6,3.2-9.4,4.7c-3.6,1.3-6.7,2.1-9.1,2.5l-3.8,0.7c0,3.5,1,6.4,3.1,8.6 C349.5,353.1,352.7,354.2,356.8,354.2z"/>
    <path d="M431.1,332.2c8.4,0,15.2,1.4,20.6,4.1c5.4,2.7,8.1,6.8,8.1,12.2c0,13.3-9.9,20-29.8,20c-8.9,0-16.3-2-22.1-6.1 c-5.8-4.1-9-9.9-9.3-17.3h17.5c1,6.7,5.9,10.1,14.7,10.1c4.3,0,7.7-0.9,10.1-2.8c2.4-1.8,3.6-4.2,3.6-7.1c0-3.8-1-6.6-3.1-8.4 c-2.1-1.8-5.5-2.9-10.3-3.2c-8.5,0-15.4-1.4-20.8-4.3c-5.4-2.8-8.1-7.1-8.1-12.8c0-6.6,2.5-11.5,7.4-14.8c4.9-3.3,12-5,21-5 c8.2,0,15.1,2.1,20.8,6.2c5.7,4.1,8.7,9.9,9,17.3H443c-1-6.7-5.4-10.1-13.1-10.1c-3.8,0-6.8,1-9,3c-2.2,2-3.3,4.6-3.3,7.8 c0,3.6,1,6.3,3.1,8C422.8,330.8,426.3,331.8,431.1,332.2z"/>
    <path d="M499.5,332.2c8.4,0,15.2,1.4,20.6,4.1c5.4,2.7,8.1,6.8,8.1,12.2c0,13.3-9.9,20-29.8,20c-8.9,0-16.3-2-22.1-6.1 c-5.8-4.1-9-9.9-9.3-17.3h17.5c1,6.7,5.9,10.1,14.7,10.1c4.3,0,7.7-0.9,10.1-2.8c2.4-1.8,3.6-4.2,3.6-7.1c0-3.8-1-6.6-3.1-8.4 c-2.1-1.8-5.5-2.9-10.3-3.2c-8.5,0-15.4-1.4-20.8-4.3c-5.4-2.8-8.1-7.1-8.1-12.8c0-6.6,2.5-11.5,7.4-14.8c4.9-3.3,12-5,21-5 c8.2,0,15.1,2.1,20.8,6.2c5.7,4.1,8.7,9.9,9,17.3h-17.5c-1-6.7-5.4-10.1-13.1-10.1c-3.8,0-6.8,1-9,3c-2.2,2-3.3,4.6-3.3,7.8 c0,3.6,1,6.3,3.1,8C491.2,330.8,494.7,331.8,499.5,332.2z"/>
  </g>
  <g id="gX83AK_1_" transform="matrix(1, 0, 0, 1, -155.454147, -139.8134)">
    <g>
      <path d="M124,476.1c0.2-0.5,0.4-1.3,0.7-2.1c1.4-3.1,2.8-6.2,4.2-9.2c3.1-6.4,6.2-12.9,9.4-19.3c3-5.9,6-11.8,9.2-17.7 c4.4-8.1,8.8-16.2,13.3-24.2c3.4-6.1,7-12.2,10.5-18.3c4.7-8,9.5-16,14.3-24c3-5,6-9.9,9.1-14.8c4.8-7.5,9.5-15.1,14.5-22.5 c4.6-6.9,9.4-13.6,14-20.5c0.2-0.3,0.4-0.5,0.6-0.7c0.9-1.1,2.2-1.3,3.5-0.7c1.1,0.6,1.8,1.9,1.2,3.2c-1,2.4-2,4.8-3.1,7.1 c-5.2,10.4-10.2,20.9-15.6,31.3c-5.6,10.8-11.4,21.5-17.3,32.2c-5,9.1-10.2,18.1-15.4,27.1c-3,5.3-6.2,10.5-9.2,15.7 c-8.3,14.1-17.2,28-26.3,41.6c-3.9,5.9-8.1,11.5-12.1,17.4c-0.8,1.2-1.8,1.7-3.2,1.6C124.9,479.1,124,478,124,476.1z"/>
      <path d="M116.8,462c-1.7,0-3.1-1.7-2.6-3.4c0.4-1.4,0.9-2.8,1.6-4.1c4.4-9.2,8.7-18.4,13.1-27.5c3-6,6.1-11.9,9.3-17.8 c3.2-5.9,6.3-11.7,9.7-17.5c6.1-10.5,12.2-21,18.5-31.5c4.8-7.9,9.7-15.7,14.6-23.6c6-9.6,12.3-19,18.9-28.3 c1.4-1.9,2.8-3.7,4.2-5.6c0.8-1.1,2.3-1.2,3.3-0.5c1.3,0.8,1.8,2,1.1,3.4c-2,4.4-3.9,8.9-6,13.2c-5.3,10.6-10.6,21.2-16,31.7 c-2.9,5.6-5.9,11.1-9,16.6c-5.7,10.2-11.4,20.4-17.3,30.5c-5.3,9-10.9,17.9-16.3,26.8c-6,9.8-12.5,19.3-19.2,28.7 c-1.7,2.3-3.4,4.6-5.1,7C118.7,461.5,117.8,462,116.8,462z"/>
      <path d="M188.9,305c-0.2,0.7-0.5,1.7-0.9,2.7c-3.3,8.4-7,16.6-11,24.6c-4.6,9.1-9.2,18.2-14,27.2c-3,5.7-6.2,11.4-9.4,17 c-4.7,8.1-9.4,16.2-14.4,24.2c-4.7,7.5-9.5,14.9-14.5,22.1c-4.4,6.4-9.2,12.6-13.9,18.8c-0.6,0.8-1.2,1.6-1.8,2.3 c-0.9,1-2.2,1.1-3.3,0.5c-1-0.5-1.8-1.8-1.3-3.1c1.3-3.3,2.3-6.7,3.8-9.9c3.4-7.7,6.9-15.4,10.6-22.9c3.1-6.4,6.5-12.6,9.8-18.9 c6.1-11.5,12.8-22.7,19.5-33.9c5.9-9.9,12.2-19.5,18.7-29c5-7.3,10.4-14.5,15.6-21.6c0.7-1,1.6-1.8,2.4-2.6 c0.7-0.7,1.6-0.8,2.5-0.3C188.1,302.7,188.9,303.4,188.9,305z"/>
      <path d="M166.5,302.3c1.4,0,2.4,1.4,1.9,2.7c-0.4,1-1.1,1.9-1.7,2.8c-6,9-11.4,18.4-16.4,28c-3.8,7.2-7.4,14.5-10.8,22 c-3.1,6.9-5.8,13.9-8.6,20.9c-3.1,7.6-6.9,14.9-11.2,21.9c-1.8,3-4.2,5.4-6.7,7.9c-3.5,3.4-7,6.9-10.3,10.5 c-1.9,2-3.2,4.5-4.1,7.2c-0.3,0.9-1.1,1.4-2,1.5c-0.8,0.1-1.5-0.3-1.9-1c-0.5-0.9-0.3-1.7,0.3-2.5c2.5-3.1,4.3-6.5,5.3-10.4 c0.6-2.4,1.3-4.8,1.9-7.3c0.8-2.9,1.6-5.8,2.4-8.7c1.1-3.8,3.1-7.1,5.1-10.5c4.9-8.2,10.6-15.8,16.5-23.2 c8.8-10.8,16.5-22.4,23.7-34.3c4.8-8,9.5-16,13.6-24.4c0.4-0.8,0.8-1.6,1.4-2.3c0.3-0.4,0.9-0.7,1.4-1 C166.4,302.1,166.4,302.2,166.5,302.3z"/>
      <path d="M87,410.3c-1.2,0-1.8-0.4-2.2-1.1c-0.4-0.7-0.4-1.4,0.1-2.1c0.9-1.4,1.9-2.8,2.7-4.2c2-3.5,3.1-7.4,4-11.3 c1.2-5,2.3-10.1,4.7-14.8c2.1-4.3,4.7-8.3,7.5-12.2c4.3-6.1,9.2-11.8,13.8-17.6c5.4-6.7,10.3-13.7,14.8-21 c4.4-7.1,8.5-14.2,12-21.8c0.3-0.6,0.8-1.2,1.3-1.6c0.7-0.5,1.7-0.4,2.2,0.1c0.6,0.6,0.9,1.6,0.6,2.3c-0.4,0.9-0.9,1.7-1.5,2.5 c-2.5,4-5.2,7.9-7.5,11.9c-5.6,9.8-10.8,19.9-14.9,30.4c-2.5,6.3-4.8,12.6-7.5,18.8c-2.1,4.9-4.6,9.6-7.3,14.3 c-1.3,2.2-3.1,4.2-4.9,6.1c-3.3,3.5-6.7,6.9-10,10.3c-2.3,2.3-4.1,4.9-5.5,7.8c-0.4,0.8-0.9,1.7-1.4,2.4 C87.7,409.8,87.2,410.1,87,410.3z"/>
      <path d="M129,304.2c-0.2,0.4-0.3,0.9-0.5,1.3c-0.6,0.9-1.3,1.8-1.9,2.7c-3.7,5.4-7,11-9.9,16.8c-1.9,3.7-4,7.4-5.5,11.3 c-2.2,5.5-3.9,11.3-5.8,16.9c-2,5.9-4.1,11.7-8,16.6c-1.4,1.8-3.1,3.4-4.8,4.9c-3.1,2.7-6.4,5.3-9.1,8.6c-1.9,2.4-3.5,5-4.5,7.9 c-0.2,0.4-0.3,0.8-0.5,1.2c-0.6,1-1.8,1.3-2.8,0.7c-1-0.6-1.4-2-0.9-2.9c0.4-0.6,0.9-1.2,1.4-1.8c3-4.1,4.9-8.7,5.8-13.7 c0.5-3,1-6.1,1.8-9.1c1-4.1,3.3-7.7,5.7-11.2c2.7-3.9,5.9-7.4,9.3-10.8c5.5-5.7,10.1-12.1,14.4-18.7c4-6.1,7.6-12.5,10.8-19.1 c0.4-0.8,0.7-1.7,1.1-2.5c0.4-0.9,1.5-1.2,2.6-0.9C128.3,302.4,128.9,303.2,129,304.2z"/>
      <path d="M54,355.6c0.2-2.6,0.9-5.1,1.7-7.6c2.4-7.5,5.6-14.6,9.9-21.2c2.2-3.5,5.2-6.4,8-9.4c2.4-2.5,4.8-5,7-7.6 c1.4-1.6,2.5-3.5,3.7-5.3c0.4-0.5,0.6-1.1,1-1.6c0.6-0.8,1.8-1,2.6-0.5c1.1,0.7,1.5,1.6,1,2.7c-0.1,0.2-0.2,0.5-0.4,0.7 c-3.6,5.9-5.3,12.5-7,19.1c-0.8,3-1.9,5.9-3.3,8.7c-4.4,8.9-10.2,16.8-17.6,23.5c-0.5,0.5-1.1,0.9-1.7,1.3 c-1.1,0.8-2.2,0.9-3.3,0.3C54.4,357.9,53.9,356.9,54,355.6z"/>
      <path d="M66.6,376.1c-0.9-0.1-1.7-0.5-2.1-1.3c-0.4-0.7-0.3-1.5,0.1-2.2c0.3-0.5,0.6-0.9,1-1.3c1.3-1.6,1.8-3.5,2.3-5.5 c0.9-3.5,1.7-7,2.6-10.5c1.4-6.2,4.6-11.3,9-15.8c3.1-3.1,6.2-6.3,9.1-9.5c2.9-3.2,5.2-6.9,7.5-10.7c2.8-4.7,5.3-9.5,7.9-14.3 c0.4-0.7,0.8-1.5,1.2-2.2c0.6-1,1.6-1.3,2.7-0.7c1.1,0.5,1.6,1.7,1.1,2.7c-0.2,0.5-0.5,1-0.8,1.4c-4.1,5.4-7.3,11.3-10.4,17.2 c-2.3,4.6-4.5,9.3-5.9,14.3c-0.8,2.9-1.3,5.8-2.3,8.6c-1.7,5-4,9.8-7.8,13.6c-1.9,1.9-4,3.7-5.9,5.6c-1.6,1.6-3.3,3.3-4.7,5 c-0.9,1.1-1.6,2.5-2.3,3.7C68.4,375.2,67.8,376,66.6,376.1z"/>
      <path d="M44.5,336.7c0.3-4.4,1.6-8.4,3.3-12.4c1.5-3.4,3.4-6.5,5.9-9.1c1.2-1.3,2.6-2.4,4-3.6c2.8-2.4,5.4-5.1,7.7-8.1 c0.9-1.2,2-1.2,2.8,0c0.3,0.4,0.5,1.1,0.3,1.5c-2.1,4.9-3,10.2-4.2,15.4c-1.2,5.3-4.1,9.6-7.6,13.6c-2,2.3-4.2,4.5-6.9,6.1 c-0.7,0.4-1.5,0.7-2.3,0.6C45.5,340.6,44.3,339,44.5,336.7z"/>
      <path d="M49.6,307.8c-0.4,6.6-3.5,11.5-9.1,14.9c-1,0.6-2.1,1-3.3,0.7c-1.6-0.4-2.5-1.6-2.8-3.4c-0.4-2.8,0.2-5.4,1.4-7.9 c1.7-3.6,4-6.8,7.8-8.5c0.8-0.4,1.7-0.7,2.6-0.7c1.6,0,2.8,1.1,3.2,3C49.5,306.4,49.5,307.1,49.6,307.8z"/>
      <path d="M29.7,304.4c0,1.7-1,2.8-2.7,2.8c-1.6,0-2.7-1.2-2.7-2.8c0-1.6,1.2-2.8,2.8-2.8C28.7,301.6,29.7,302.7,29.7,304.4z"/>
    </g>
  </g>
</svg>